<svg version="1.1" xmlns="http://www.w3.org/2000/svg" xmlns:xlink="http://www.w3.org/1999/xlink" width="48" height="48"><defs><linearGradient x1="14.22989" y1="15.95403" x2="36.24498" y2="34.52085" gradientUnits="userSpaceOnUse" id="color-1"><stop offset="0.36" stop-color="#000000" stop-opacity="0.66"></stop><stop offset="1" stop-color="#000000" stop-opacity="0"></stop></linearGradient><filter id="dropshadow-base"><feColorMatrix type="matrix" values="0 0 0 0 0  0 0 0 0 0  0 0 0 0 0  0 0 0 .8 0"></feColorMatrix> <feOffset dx="0" dy="1"></feOffset> <feGaussianBlur stdDeviation="1"></feGaussianBlur> <feComposite in="SourceGraphic"></feComposite></filter><filter id="dropshadow-banner" x="-10%" y="-10%" width="120%" height="130%"><feColorMatrix type="matrix" values="0 0 0 0 0  0 0 0 0 0  0 0 0 0 0  0 0 0 .4 0"></feColorMatrix> <feOffset dx="0" dy="1"></feOffset> <feGaussianBlur stdDeviation="0.5"></feGaussianBlur> <feComposite in="SourceGraphic"></feComposite></filter></defs><g fill="none" fill-rule="nonzero" stroke="none" stroke-width="none" stroke-linecap="butt" stroke-linejoin="miter" stroke-miterlimit="10" stroke-dasharray="" stroke-dashoffset="0" font-family="none" font-weight="none" font-size="none" text-anchor="none" style="mix-blend-mode: normal"><path d="M2,24c0,-12.15026 9.84974,-22 22,-22c12.15026,0 22,9.84974 22,22c0,12.15026 -9.84974,22 -22,22c-12.15026,0 -22,-9.84974 -22,-22z" id="base 1 5" fill="#e0b322" stroke-width="1"></path><path d="M18.82759,24.17602h-2.12282v2.12282h2.12282zM14.22989,21.70115h1.14942l-1.14942,-1.14942v-4.5977h4.5977l1.14942,1.14942v-1.14942h13.7931l2.47487,2.47487v4.5977l-1.14942,0l1.14942,1.14942v4.5977h-1.14942l1.14942,1.14942v4.5977h-13.7931l-1.14942,-1.14942v1.14942h-4.5977l-2.47487,-2.47487v-4.5977h1.14942l-1.14942,-1.14942zM33.77011,20.55173v-2.12282h-11.31822l0,2.12282zM33.77011,29.92315h-11.31822l0,2.12282h11.31822zM33.77011,24.17602h-11.31822l0,2.12282h11.31822zM18.82759,18.4289h-2.12282v2.12282h2.12282zM18.82759,29.92315h-2.12282v2.12282h2.12282z" fill="url(#color-1)" stroke-width="1"></path><path d="M14.22989,26.29885h4.5977v-4.5977h-4.5977zM14.22989,32.04597h4.5977v-4.5977h-4.5977zM14.22989,20.55173h4.5977v-4.5977h-4.5977zM19.97701,26.29885h13.7931v-4.5977h-13.7931zM19.97701,32.04597h13.7931v-4.5977h-13.7931zM19.97701,15.95403v4.5977h13.7931v-4.5977z" fill="none" stroke-width="0"></path><path d="M14.22989,26.29885h4.5977v-4.5977h-4.5977zM14.22989,32.04597h4.5977v-4.5977h-4.5977zM14.22989,20.55173h4.5977v-4.5977h-4.5977zM19.97701,26.29885h13.7931v-4.5977h-13.7931zM19.97701,32.04597h13.7931v-4.5977h-13.7931zM19.97701,15.95403v4.5977h13.7931v-4.5977z" fill="#ffffff" stroke-width="0"></path><path d="M2,24c0,-12.15026 9.84974,-22 22,-22c12.15026,0 22,9.84974 22,22c0,12.15026 -9.84974,22 -22,22c-12.15026,0 -22,-9.84974 -22,-22z" id="base 1 1 1" fill="none" stroke-width="1"></path><g fill="#000000" stroke-width="1" font-family="Roboto, sans-serif" font-weight="normal" font-size="14" text-anchor="start"></g><rect x="2" y="2" width="44" height="22" fill="none" stroke-width="1"></rect><path d="M2,24v-22h44v22z" fill="none" stroke-width="1"></path><path d="M2,24v-22h44v22z" fill="none" stroke-width="1"></path><path d="M2,24v-22h44v22z" fill="none" stroke-width="1"></path><path d="M2,24v-22h44v22z" fill="none" stroke-width="1"></path></g></svg>